<svg id="圖層_1" data-name="圖層 1" xmlns="http://www.w3.org/2000/svg" xmlns:xlink="http://www.w3.org/1999/xlink" viewBox="0 0 1920 800"><defs><style>.cls-1{fill:url(#未命名漸層_3);}.cls-2{fill:#d7e6f6;}.cls-3{fill:#fff;}.cls-4{fill:url(#未命名漸層_2);}.cls-5{fill:#2a5334;}.cls-6{fill:#006934;}.cls-7{fill:url(#未命名漸層_2-2);}.cls-8{fill:url(#未命名漸層_2-3);}.cls-9{fill:url(#未命名漸層_2-4);}.cls-10,.cls-18{fill:none;stroke-linecap:round;}.cls-10{stroke:#10222a;stroke-linejoin:round;stroke-width:2px;}.cls-11{fill:#d8595f;}.cls-12{fill:#264b5c;}.cls-13{fill:#2a5366;}.cls-14{fill:#f5b861;}.cls-15{fill:#bf6a33;}.cls-16{fill:#d5803b;}.cls-17{fill:#7b3a1f;}.cls-18{stroke:#f39f29;stroke-miterlimit:10;}.cls-19{fill:#913f92;}.cls-20{fill:#44b9b4;}.cls-21{fill:#9d8151;}</style><linearGradient id="未命名漸層_3" x1="981.87" y1="997.77" x2="981.87" y2="-525.27" gradientUnits="userSpaceOnUse"><stop offset="0" stop-color="#afd4e3"/><stop offset="0.02" stop-color="#add4e3"/><stop offset="1" stop-color="#3894d2"/></linearGradient><linearGradient id="未命名漸層_2" x1="448.56" y1="743.08" x2="66.57" y2="743.08" gradientUnits="userSpaceOnUse"><stop offset="0" stop-color="#2a5334"/><stop offset="0.65" stop-color="#295534"/><stop offset="0.88" stop-color="#255c34"/><stop offset="1" stop-color="#216334"/></linearGradient><linearGradient id="未命名漸層_2-2" x1="980.6" y1="749.62" x2="598.61" y2="749.62" xlink:href="#未命名漸層_2"/><linearGradient id="未命名漸層_2-3" x1="1473.62" y1="768.34" x2="1091.63" y2="768.34" xlink:href="#未命名漸層_2"/><linearGradient id="未命名漸層_2-4" x1="1994.56" y1="779.7" x2="1612.57" y2="779.7" xlink:href="#未命名漸層_2"/></defs><title>bg</title><polygon id="_路徑_" data-name="&lt;路徑&gt;" class="cls-1" points="-12.41 -173.74 -12.41 -23.42 -12.41 250.84 -12.41 525.09 -12.41 799.34 -12.41 1016.82 1976.15 1016.82 1976.15 866.8 1976.15 592.54 1976.15 318.29 1976.15 44.04 1976.15 -173.74 -12.41 -173.74"/><g id="_群組_" data-name="&lt;群組&gt;"><path id="_路徑_2" data-name="&lt;路徑&gt;" class="cls-2" d="M371.43,575.19c-26.43,19.82-45.94,2.45-45.94,2.45a11.32,11.32,0,0,1-10.91,2.77c-2.77,6.76-13.68,17.67-32.58,17.67s-30.58-18.28-30.58-18.28c-20.59,13.67-37.49-5.54-37.49-5.54s-22.4.23-28.26-8.58a8.43,8.43,0,0,0-1.4,4.77c0,13.52,29.66,13.22,29.66,13.22s16.9,19.2,37.49,5.53c0,0,11.68,18.28,30.58,18.28s29.81-10.91,32.58-17.67a11.33,11.33,0,0,0,10.91-2.76s19.51,17.36,45.94-2.46c0,0,27.51,4,27.51-11.53a10.25,10.25,0,0,0-1.06-4.68C392.83,578.29,371.43,575.19,371.43,575.19Z"/><path id="_路徑_3" data-name="&lt;路徑&gt;" class="cls-3" d="M213.93,574.26s16.9,19.21,37.49,5.54c0,0,11.68,18.28,30.58,18.28s29.81-10.91,32.58-17.67a11.32,11.32,0,0,0,10.91-2.77S345,595,371.43,575.19c0,0,21.4,3.1,26.45-6.81-5.16-10.2-27.37-7.92-27.37-7.92a18,18,0,0,0-18.28-7.37s-6.77-15.22-28-11.84c0,0,1.38-13.52-13.83-20.13s-28.27,3.08-28.27,3.08-16.75-8.76-21.21,9.52a22,22,0,0,0-20.39,9.48s-20.18-5.33-29.09,14.8c0,0-20.25-.8-25.8,7.68C191.53,574.49,213.93,574.26,213.93,574.26Z"/></g><g id="_群組_2" data-name="&lt;群組&gt;"><path id="_路徑_4" data-name="&lt;路徑&gt;" class="cls-2" d="M1705,432.41c-15.9,21.31-36.49,8.58-36.49,8.58-15.74,11.58-23.06-4.26-23.06-4.26C1628.87,443.94,1621,430,1621,430c-6.44,2.08-11.12,1.33-13.47-1.84a6,6,0,0,0-1.72,4.42c0,8,5.68,11,15.19,8,0,0,7.87,14,24.48,6.78,0,0,7.32,15.84,23.06,4.26,0,0,20.59,12.73,36.49-8.58,0,0,36.39,10.49,36.39-12.62a19,19,0,0,0-.73-5.43C1735.58,441.22,1705,432.41,1705,432.41Z"/><path id="_路徑_5" data-name="&lt;路徑&gt;" class="cls-3" d="M1621,430s7.87,14,24.48,6.78c0,0,7.32,15.84,23.06,4.26,0,0,20.59,12.73,36.49-8.58,0,0,30.55,8.81,35.66-7.5-4.78-16.17-31.72-8.83-31.72-8.83s-5.25-26.55-31-14.75c0,0-.17-13.79-17.21-14-15.74-.21-17,16.92-17,16.92s-26-7.86-26.55,21.2c0,0-6.47-.49-9.65,2.69C1609.88,431.28,1614.56,432,1621,430Z"/></g><path class="cls-4" d="M66.57,759.56s104.88-59.43,127.65-70.67,35.28-15.42,56.23-2.68c21.66,13.18,57.82,36.78,67.23,38s18.08-8.56,29.52-8.56,101.36,39.05,101.36,39.05v53.07h-382Z"/><path class="cls-5" d="M318.68,753.63s-42.7-17.87-73.31-16.41-81,20-111.67,16.41S-6.58,697.41-42.88,702.39s-83.27,27.67-91.1,29.85-7.83,5-7.83,5v70.56H318.68Z"/><path class="cls-6" d="M-141.46,766.81s72.06-33.87,91.52-32.43S71.29,785.55,123.82,784.1s78.46-15.85,100.08-13.69,73.86,25.22,111,19.46S448,753.12,448,753.12v57.71H-141.46Z"/><path class="cls-7" d="M598.61,766.1s104.88-59.43,127.65-70.67,35.28-15.43,56.23-2.68c21.66,13.18,57.82,36.78,67.22,38s18.09-8.56,29.52-8.56,101.37,39,101.37,39v53.07h-382Z"/><path class="cls-5" d="M850.72,760.17S808,742.3,777.41,743.76s-81,20-111.68,16.41-140.27-56.23-176.57-51.24-83.27,27.66-91.1,29.84-7.83,5-7.83,5v70.56H850.72Z"/><path class="cls-6" d="M390.58,773.35s72.06-33.87,91.52-32.43,121.23,51.16,173.76,49.72S734.32,774.79,755.94,777s73.86,25.22,111,19.46,113.14-36.75,113.14-36.75v57.71H390.58Z"/><path class="cls-8" d="M1091.63,784.81s104.88-59.42,127.66-70.66,35.27-15.43,56.23-2.68c21.66,13.18,57.81,36.78,67.22,38s18.09-8.56,29.52-8.56S1473.62,780,1473.62,780V833h-382Z"/><path class="cls-5" d="M1343.75,778.89s-42.7-17.87-73.31-16.41-81,20-111.68,16.41-140.27-56.23-176.57-51.24-83.27,27.66-91.1,29.84-7.83,5-7.83,5V833h460.49Z"/><path class="cls-6" d="M883.61,792.07s72.06-33.87,91.52-32.43,121.23,51.16,173.75,49.72,78.47-15.85,100.09-13.69,73.86,25.22,111,19.46,113.14-36.75,113.14-36.75v57.71H883.61Z"/><path class="cls-9" d="M1612.57,796.18s104.88-59.43,127.66-70.67,35.27-15.42,56.22-2.68c21.66,13.18,57.82,36.78,67.23,38s18.08-8.56,29.52-8.56,101.36,39.05,101.36,39.05V844.4h-382Z"/><path class="cls-5" d="M1864.69,790.25s-42.71-17.87-73.31-16.41-81,20-111.68,16.41S1539.42,734,1503.12,739s-83.27,27.67-91.1,29.85-7.83,5-7.83,5V844.4h460.5Z"/><path class="cls-6" d="M1404.54,803.43s72.07-33.87,91.52-32.43,121.24,51.17,173.76,49.72,78.46-15.85,100.08-13.69,73.87,25.22,111,19.46S1994,789.74,1994,789.74v57.71H1404.54Z"/><line class="cls-10" x1="405.23" y1="654.01" x2="411.87" y2="671.52"/><line class="cls-10" x1="416.05" y1="652.44" x2="419.44" y2="669.82"/><line class="cls-10" x1="434.56" y1="647.42" x2="435.02" y2="666.32"/><line class="cls-10" x1="424.06" y1="650.63" x2="427.46" y2="668.02"/><path class="cls-11" d="M399,543.45h0c-28.72,6.45-47.79,33.3-42.59,60,3.11,16,25.84,32.93,43.61,44l18.45-4.14L424,642h0l12.93-2.91C449,621.33,463.51,596,460.4,580,455.2,553.38,427.7,537,399,543.45Z"/><path class="cls-12" d="M436.89,639.13l0,7.08c0,2.57-2.12,4.93-5,5.57l-22.59,5.08c-2.89.65-5.72-.6-6.67-3L400,647.42Z"/><path class="cls-13" d="M436.89,639.13l0,7.08c0,2.57-2.12,4.93-5,5.57L417,655.13c-2.89.65-5.72-.6-6.67-2.94l-2.64-6.5Z"/><path class="cls-14" d="M438.18,669.84l-27.89,6.26a2.23,2.23,0,0,1-2.81-1.53l-.15-.76a2.39,2.39,0,0,1,2-2.62l27.89-6.26a2.25,2.25,0,0,1,2.82,1.53l.14.76A2.39,2.39,0,0,1,438.18,669.84Z"/><path class="cls-15" d="M431.45,671.35,432.77,685a4.07,4.07,0,0,1-2.93,4.49L419,691.91a3.8,3.8,0,0,1-4.36-2.85l-2.94-9.91-.94-3.15Z"/><path class="cls-16" d="M437.74,669.94l1.32,13.63a4.09,4.09,0,0,1-2.93,4.49l-10.86,2.44a3.8,3.8,0,0,1-4.36-2.85l-3-9.91-.94-3.15Z"/><polygon class="cls-15" points="417.02 674.59 437.74 669.94 437.99 672.54 417.79 677.14 417.02 674.59"/><path class="cls-17" d="M416.39,677.5l.52-1-2.15.48.81.77c-.47.72-1.24,2-1.08,2.86a2,2,0,0,0,2.43,1.68,2.19,2.19,0,0,0,1.59-2.58C418.35,678.85,417.08,678,416.39,677.5Z"/><path class="cls-18" d="M411.25,676.67c.77,1,2.68,1.46,4.77,1s3.66-1.7,4-3"/><path class="cls-17" d="M425.14,675.54l.52-1-2.15.49.82.76c-.48.72-1.25,2.05-1.09,2.87a2,2,0,0,0,2.43,1.67,2.2,2.2,0,0,0,1.6-2.58C427.1,676.89,425.84,676,425.14,675.54Z"/><path class="cls-18" d="M420,674.7c.76,1,2.68,1.46,4.76,1s3.67-1.69,4-3"/><path class="cls-17" d="M433.89,673.57l.53-1-2.16.48.82.77c-.48.72-1.25,2-1.09,2.86a2,2,0,0,0,2.43,1.67,2.19,2.19,0,0,0,1.6-2.57C435.85,674.92,434.59,674,433.89,673.57Z"/><path class="cls-18" d="M428.76,672.73c.76,1,2.68,1.47,4.76,1s3.67-1.7,4-3"/><path class="cls-3" d="M362,599.28c-2-5.51,0-11.5,2.66-16.49.81-1.51-1.62-2.61-2.43-1.1-3,5.6-4.48,12-2.27,18.19C360.52,601.5,362.56,600.9,362,599.28Z"/><path class="cls-3" d="M363.37,604.74a1.33,1.33,0,0,0-2.1-1.64A1.33,1.33,0,0,0,363.37,604.74Z"/><line class="cls-10" x1="1540.79" y1="551.04" x2="1541.93" y2="568.7"/><line class="cls-10" x1="1551" y1="552.61" x2="1549.24" y2="569.26"/><line class="cls-10" x1="1569.12" y1="553.22" x2="1564.29" y2="570.42"/><line class="cls-10" x1="1558.74" y1="553.21" x2="1556.98" y2="569.86"/><path class="cls-19" d="M1565.79,449.42h0c-27.74-2.14-52.41,16.83-55.11,42.36-1.61,15.27,14.22,36.92,27.21,51.85L1555.7,545l5.33.41h0l12.49,1c15.9-12.71,36-31.59,37.62-46.86C1613.84,474,1593.53,451.55,1565.79,449.42Z"/><path class="cls-12" d="M1573.52,546.37l-2,6.41a5.75,5.75,0,0,1-6.07,3.64l-21.82-1.68c-2.8-.21-5-2.13-5.21-4.51l-.58-6.6Z"/><path class="cls-13" d="M1573.52,546.37l-2,6.41a5.75,5.75,0,0,1-6.07,3.64l-14.4-1.11c-2.79-.21-5-2.12-5.21-4.51l-.58-6.6Z"/><path class="cls-14" d="M1566.17,574.47l-26.93-2.07a2.11,2.11,0,0,1-2.12-2.17l.08-.72a2.25,2.25,0,0,1,2.53-1.81l26.94,2.07a2.11,2.11,0,0,1,2.11,2.17l-.07.72A2.27,2.27,0,0,1,1566.17,574.47Z"/><path class="cls-15" d="M1559.67,574l-2.59,12.69a3.85,3.85,0,0,1-3.89,3.24l-10.49-.81a3.58,3.58,0,0,1-3.14-3.78l.08-9.77,0-3.11Z"/><path class="cls-16" d="M1565.75,574.44l-2.59,12.68a3.86,3.86,0,0,1-3.9,3.25l-10.49-.81a3.58,3.58,0,0,1-3.14-3.78l.08-9.77,0-3.11Z"/><polygon class="cls-15" points="1545.74 572.9 1565.74 574.44 1565.25 576.86 1545.72 575.41 1545.74 572.9"/><path class="cls-17" d="M1544.36,575.36l.75-.78-2.08-.16.52.92c-.63.52-1.69,1.5-1.77,2.29a1.93,1.93,0,0,0,1.73,2.18,2.07,2.07,0,0,0,2.16-1.88C1545.75,577.12,1544.86,576,1544.36,575.36Z"/><path class="cls-18" d="M1540,573.17c.41,1.14,2,2.07,4,2.22s3.78-.51,4.42-1.56"/><path class="cls-17" d="M1552.81,576l.75-.78-2.08-.16.53.92c-.63.52-1.69,1.5-1.78,2.29a1.93,1.93,0,0,0,1.73,2.18,2.06,2.06,0,0,0,2.16-1.88C1554.21,577.77,1553.32,576.6,1552.81,576Z"/><path class="cls-18" d="M1548.4,573.83c.41,1.13,2,2.06,4,2.21s3.78-.51,4.42-1.56"/><path class="cls-17" d="M1561.26,576.66l.76-.77-2.09-.16.53.91c-.63.52-1.69,1.51-1.77,2.29a1.94,1.94,0,0,0,1.72,2.19,2.08,2.08,0,0,0,2.16-1.89C1562.66,578.42,1561.77,577.25,1561.26,576.66Z"/><path class="cls-18" d="M1556.85,574.48c.41,1.13,2,2.06,4,2.22s3.79-.52,4.43-1.57"/><path class="cls-3" d="M1516.89,489.6c-.26-5.53,3.17-10.4,7-14.17,1.15-1.14-.74-2.8-1.89-1.66-4.28,4.23-7.39,9.64-7.1,15.8C1515,491.19,1517,491.22,1516.89,489.6Z"/><path class="cls-3" d="M1516.63,494.91a1.26,1.26,0,0,0-1.44-2.06A1.26,1.26,0,0,0,1516.63,494.91Z"/><g id="_群組_3" data-name="&lt;群組&gt;"><path id="_路徑_6" data-name="&lt;路徑&gt;" class="cls-2" d="M540.66,275.25c-26.43,19.82-45.95,2.46-45.95,2.46a11.33,11.33,0,0,1-10.91,2.76c-2.76,6.76-13.67,17.68-32.58,17.68s-30.57-18.29-30.57-18.29c-20.6,13.68-37.5-5.53-37.5-5.53s-22.4.23-28.26-8.59a8.51,8.51,0,0,0-1.4,4.77c0,13.53,29.66,13.22,29.66,13.22s16.9,19.21,37.5,5.53c0,0,11.67,18.29,30.57,18.29S481,296.64,483.8,289.88a11.35,11.35,0,0,0,10.91-2.77s19.52,17.36,45.95-2.46c0,0,27.5,4,27.5-11.52a10.2,10.2,0,0,0-1.06-4.69C562.05,278.35,540.66,275.25,540.66,275.25Z"/><path id="_路徑_7" data-name="&lt;路徑&gt;" class="cls-3" d="M383.15,274.33s16.9,19.21,37.5,5.53c0,0,11.67,18.29,30.57,18.29S481,287.23,483.8,280.47a11.33,11.33,0,0,0,10.91-2.76s19.52,17.36,45.95-2.46c0,0,21.39,3.1,26.44-6.81-5.15-10.19-27.37-7.91-27.37-7.91a18,18,0,0,0-18.28-7.38s-6.76-15.21-28-11.83c0,0,1.38-13.52-13.83-20.13s-28.27,3.07-28.27,3.07-16.75-8.76-21.21,9.53a22,22,0,0,0-20.38,9.47s-20.18-5.32-29.1,14.81c0,0-20.25-.8-25.8,7.67C360.75,274.56,383.15,274.33,383.15,274.33Z"/></g><line class="cls-10" x1="1660.22" y1="286.02" x2="1665.55" y2="308.59"/><line class="cls-10" x1="1673.76" y1="285.83" x2="1675.12" y2="307.73"/><line class="cls-10" x1="1697.3" y1="282.66" x2="1694.82" y2="305.94"/><line class="cls-10" x1="1683.89" y1="284.91" x2="1685.25" y2="306.81"/><path class="cls-20" d="M1670.36,149.26h0c-36.31,3.3-64,33.18-62,66.76,1.25,20.08,26.43,44.6,46.47,61.07l23.32-2.12,7-.63h0l16.36-1.48c17.77-19.9,39.64-48.68,38.39-68.76C1737.8,170.52,1706.67,146,1670.36,149.26Z"/><path class="cls-12" d="M1701.5,272.86l-1.13,8.69c-.41,3.15-3.39,5.71-7,6l-28.56,2.59c-3.66.33-6.92-1.66-7.72-4.7l-2.19-8.39Z"/><path class="cls-13" d="M1701.5,272.86l-1.13,8.69c-.41,3.15-3.39,5.71-7,6l-18.84,1.71c-3.66.33-6.92-1.66-7.72-4.7l-2.19-8.39Z"/><path class="cls-14" d="M1698.13,310.77,1662.88,314a2.76,2.76,0,0,1-3.21-2.34l-.06-.95a3,3,0,0,1,2.88-2.89l35.25-3.2a2.77,2.77,0,0,1,3.21,2.34l.06,1A3,3,0,0,1,1698.13,310.77Z"/><path class="cls-15" d="M1689.63,311.54l-.58,16.95a5.06,5.06,0,0,1-4.33,5L1671,334.78a4.7,4.7,0,0,1-4.89-4.21l-2-12.64-.64-4Z"/><path class="cls-16" d="M1697.57,310.82l-.58,16.95a5.05,5.05,0,0,1-4.32,5l-13.73,1.25a4.71,4.71,0,0,1-4.89-4.21l-2-12.64-.65-4Z"/><polygon class="cls-15" points="1671.38 313.19 1697.57 310.82 1697.46 314.06 1671.91 316.45 1671.38 313.19"/><path class="cls-17" d="M1670.13,316.66l.81-1.16-2.72.25.88,1.07c-.71.81-1.86,2.31-1.8,3.35a2.53,2.53,0,0,0,2.71,2.44,2.71,2.71,0,0,0,2.38-2.91C1672.32,318.64,1670.92,317.32,1670.13,316.66Z"/><path class="cls-18" d="M1664,314.81c.78,1.37,3.06,2.23,5.69,2s4.78-1.49,5.38-3"/><path class="cls-17" d="M1681.2,315.66l.81-1.16-2.73.25.88,1.07c-.7.81-1.86,2.31-1.79,3.34a2.53,2.53,0,0,0,2.71,2.45,2.71,2.71,0,0,0,2.37-2.91C1683.39,317.64,1682,316.32,1681.2,315.66Z"/><path class="cls-18" d="M1675,313.81c.77,1.37,3,2.22,5.68,2s4.78-1.5,5.38-3"/><path class="cls-17" d="M1692.26,314.66l.81-1.16-2.73.25.88,1.07c-.7.81-1.85,2.31-1.79,3.34a2.54,2.54,0,0,0,2.71,2.45,2.72,2.72,0,0,0,2.38-2.91C1694.45,316.63,1693.05,315.32,1692.26,314.66Z"/><path class="cls-18" d="M1686.09,312.8c.78,1.38,3.06,2.23,5.69,2s4.78-1.49,5.38-3"/><path class="cls-3" d="M1615.94,211.85c-1.54-7.09,1.82-14.12,5.92-19.83,1.24-1.72-1.57-3.46-2.8-1.74-4.6,6.4-7.44,14.07-5.72,22C1613.79,214.33,1616.39,213.92,1615.94,211.85Z"/><path class="cls-3" d="M1616.77,218.77a1.65,1.65,0,0,0-2.32-2.35A1.65,1.65,0,0,0,1616.77,218.77Z"/><line class="cls-10" x1="222.69" y1="351.64" x2="223.83" y2="369.3"/><line class="cls-10" x1="232.9" y1="353.22" x2="231.14" y2="369.87"/><line class="cls-10" x1="251.02" y1="353.82" x2="246.19" y2="371.02"/><line class="cls-10" x1="240.64" y1="353.81" x2="238.88" y2="370.46"/><path class="cls-21" d="M247.69,250h0c-27.74-2.13-52.41,16.83-55.11,42.36-1.61,15.27,14.22,36.92,27.21,51.86l17.81,1.37,5.33.41h0l12.49,1c15.9-12.71,36-31.6,37.62-46.87C295.74,274.58,275.43,252.16,247.69,250Z"/><path class="cls-12" d="M255.42,347l-1.95,6.4A5.75,5.75,0,0,1,247.4,357l-21.82-1.68c-2.8-.21-5-2.12-5.21-4.51l-.58-6.59Z"/><path class="cls-13" d="M255.42,347l-1.95,6.4A5.75,5.75,0,0,1,247.4,357l-14.4-1.1c-2.79-.22-5-2.13-5.21-4.52l-.58-6.59Z"/><path class="cls-14" d="M248.07,375.08,221.14,373a2.12,2.12,0,0,1-2.12-2.16l.08-.73a2.25,2.25,0,0,1,2.53-1.81l26.94,2.07a2.11,2.11,0,0,1,2.11,2.17l-.07.73A2.28,2.28,0,0,1,248.07,375.08Z"/><path class="cls-15" d="M241.57,374.58,239,387.26a3.86,3.86,0,0,1-3.9,3.24l-10.49-.8a3.59,3.59,0,0,1-3.14-3.79l.08-9.77,0-3.1Z"/><path class="cls-16" d="M247.65,375l-2.59,12.69a3.86,3.86,0,0,1-3.9,3.24l-10.49-.81a3.58,3.58,0,0,1-3.14-3.78l.08-9.77,0-3.11Z"/><polygon class="cls-15" points="227.64 373.5 247.65 375.04 247.15 377.47 227.62 376.02 227.64 373.5"/><path class="cls-17" d="M226.26,376l.75-.77-2.08-.16.52.92c-.63.52-1.69,1.5-1.77,2.28a1.93,1.93,0,0,0,1.73,2.19,2.07,2.07,0,0,0,2.16-1.89C227.65,377.72,226.76,376.55,226.26,376Z"/><path class="cls-18" d="M221.85,373.78c.41,1.13,2,2.06,4,2.22s3.78-.52,4.42-1.57"/><path class="cls-17" d="M234.71,376.61l.75-.77-2.08-.16.53.92c-.63.52-1.69,1.5-1.78,2.28a1.93,1.93,0,0,0,1.73,2.19,2.07,2.07,0,0,0,2.16-1.89C236.11,378.37,235.22,377.2,234.71,376.61Z"/><path class="cls-18" d="M230.3,374.43c.41,1.13,2,2.06,4,2.22s3.78-.52,4.42-1.57"/><path class="cls-17" d="M243.16,377.26l.76-.77-2.09-.16.53.92c-.63.52-1.69,1.5-1.77,2.28a1.93,1.93,0,0,0,1.72,2.19,2.07,2.07,0,0,0,2.16-1.89C244.56,379,243.67,377.85,243.16,377.26Z"/><path class="cls-18" d="M238.75,375.08c.41,1.13,2,2.06,4,2.22s3.79-.52,4.43-1.57"/><path class="cls-3" d="M198.79,290.2c-.26-5.53,3.17-10.39,7-14.16,1.15-1.14-.74-2.81-1.89-1.67-4.28,4.23-7.39,9.64-7.1,15.81C196.86,291.8,198.87,291.82,198.79,290.2Z"/><path class="cls-3" d="M198.53,295.52a1.26,1.26,0,0,0-1.44-2.07A1.26,1.26,0,0,0,198.53,295.52Z"/></svg>