<?xml version="1.0" standalone="no"?>
<!DOCTYPE svg PUBLIC "-//W3C//DTD SVG 20010904//EN"
 "http://www.w3.org/TR/2001/REC-SVG-20010904/DTD/svg10.dtd">
<svg version="1.0" xmlns="http://www.w3.org/2000/svg"
 width="640.000000pt" height="603.000000pt" viewBox="0 0 640.000000 603.000000"
 preserveAspectRatio="xMidYMid meet">

<g transform="translate(0.000000,603.000000) scale(0.100000,-0.100000)"
fill="#000000" stroke="none">
<path d="M2439 5378 c-404 -358 -1117 -990 -1586 -1405 l-852 -755 166 -186
c92 -103 169 -186 171 -185 2 1 644 567 1428 1258 883 779 1429 1253 1436
1249 7 -4 644 -568 1417 -1253 773 -684 1415 -1246 1427 -1249 17 -3 53 31
183 176 88 100 161 185 161 190 0 4 -658 589 -1462 1298 -804 709 -1517 1337
-1583 1396 -67 59 -133 109 -146 111 -22 4 -134 -92 -760 -645z"/>
<path d="M2067 3953 l-1116 -988 -1 -1430 c0 -1366 1 -1432 18 -1464 10 -19
34 -43 53 -53 32 -17 75 -18 751 -18 l718 0 0 638 c0 614 1 638 20 669 43 72
6 68 680 68 575 0 607 -1 636 -19 67 -40 64 -7 64 -715 l0 -641 738 0 c641 0
740 2 759 15 12 8 31 40 42 71 21 55 21 60 19 1467 l-3 1412 -1120 987 c-616
544 -1125 988 -1131 988 -6 0 -514 -444 -1127 -987z"/>
</g>
</svg>
