<svg id="圖層_1" data-name="圖層 1" xmlns="http://www.w3.org/2000/svg" xmlns:xlink="http://www.w3.org/1999/xlink" viewBox="0 0 1920 1080"><defs><style>.cls-1{fill:url(#linear-gradient);}.cls-2{fill:#667e69;opacity:0.2;}</style><linearGradient id="linear-gradient" x1="956.84" y1="1111.3" x2="956.84" y2="-9.81" gradientUnits="userSpaceOnUse"><stop offset="0" stop-color="#579449"/><stop offset="1" stop-color="#60a251"/></linearGradient></defs><title>bg2</title><rect class="cls-1" x="-10" y="-5" width="1933.68" height="1094.14"/><path class="cls-2" d="M1918.52,423.21S1702.43,445.54,1563.68,436s-241.11-10.6-273,2.36-259.08,39.42-259.08,39.42,190.84,3.31,295.47-13.23,498.14,16.54,550.45,6.61S1918.52,423.21,1918.52,423.21Z"/><path class="cls-2" d="M-8.85,736.35s79.17-27.58,109.33-17.65,67.87,27.63,139.5,7.75,113.11-25.3,156.47-9.91,75.41,28.63,130.07,19.81,73.53,3.31,175.32,9.93,313.1,9.92,297.94,16.54-333.75,23.17-396,11-247-17.65-333.67-11-279,0-279,0Z"/><path class="cls-2" d="M-4.41,425.36s79.17-27.58,109.33-17.65,67.87,27.63,139.51,7.75,113.11-25.3,156.46-9.91S476.3,434.18,531,425.36s73.52,3.31,175.32,9.93,313.1,9.92,297.93,16.54-333.75,23.17-396,11-246.95-17.65-333.67-11-279,0-279,0Z"/><path class="cls-2" d="M1922.53,742.69s-98.44,34.66-260.18,35.26-188.88,10.53-305.4,20.46-157-8.27-227.27,8.27-148.89,13.24-134.21,28.13,291.66-16.54,361.48-6.62,250.9,11.47,347.59,10.7,211.32-14,211.32-14Z"/><path class="cls-2" d="M1924.3,539.24s-159.47,34.66-421.48,35.26S1196.85,585,1008.1,595s-254.26-8.27-368.17,8.27-241.2,13.24-217.43,28.13,472.48-16.55,585.6-6.62,406.44,11.46,563.07,10.7,342.32-14,342.32-14Z"/><path class="cls-2" d="M1373.75-1.13S1144.62,15.4,1038.3,36.78s-297.57-31.31-379.84,0S385.4,83.23,318.36,77.31s-159.85,1.26-159.85,1.26L-10,116.6V-1.13Z"/><path class="cls-2" d="M17.11,952.8s315.08,14.84,411.56-3.34S571.2,934.05,607.81,948s124.63-16.14,206.41-7,162.13,13.94,204-2,104.72-17.16,126.81-4.32,159.42-20.68,198.45-6.77,82.53-16,101.69-13.17,476.36,1.45,476.36,1.45L1848.23,963s-356.33-.18-436.41-9-126.22,7.61-211.88,10.53-187.78-1.87-250.29,11.85S794,1017.92,746.08,1000.61s-101.32-22.11-151.82-5.49-116.11,8.93-143-5-69.72,22.23-115.93,12.22-344-8.82-344-8.82Z"/><path class="cls-2" d="M17.11,222.4s315.08,14.85,411.56-3.34,142.53-15.4,179.14-1.45,124.63-16.14,206.41-7,162.13,13.94,204-2,104.72-17.17,126.81-4.33,159.42-20.68,198.45-6.76,82.53-16,101.69-13.18,476.36,1.45,476.36,1.45l-73.3,46.91s-356.33-.17-436.41-9-126.22,7.62-211.88,10.54S1012.16,232.27,949.65,246,794,287.52,746.08,270.22s-101.32-22.11-151.82-5.49-116.11,8.92-143-5.06-69.72,22.24-115.93,12.23-344-8.82-344-8.82Z"/></svg>