<svg id="圖層_1" data-name="圖層 1" xmlns="http://www.w3.org/2000/svg" xmlns:xlink="http://www.w3.org/1999/xlink" viewBox="0 0 1920 677"><defs><style>.cls-1,.cls-12,.cls-20{fill:none;}.cls-2{clip-path:url(#clip-path);}.cls-3{fill:url(#未命名漸層_3);}.cls-4{fill:url(#未命名漸層_2);}.cls-5{fill:#2a5334;}.cls-6{fill:#006934;}.cls-7{fill:url(#未命名漸層_2-2);}.cls-8{fill:url(#未命名漸層_2-3);}.cls-9{fill:url(#未命名漸層_2-4);}.cls-10{fill:#d7e6f6;}.cls-11{fill:#fff;}.cls-12{stroke:#10222a;stroke-linejoin:round;stroke-width:2px;}.cls-12,.cls-20{stroke-linecap:round;}.cls-13{fill:#913f92;}.cls-14{fill:#264b5c;}.cls-15{fill:#2a5366;}.cls-16{fill:#f5b861;}.cls-17{fill:#bf6a33;}.cls-18{fill:#d5803b;}.cls-19{fill:#7b3a1f;}.cls-20{stroke:#f39f29;stroke-miterlimit:10;}.cls-21{fill:#44b9b4;}.cls-22{fill:#d8595f;}.cls-23{fill:#9d8151;}</style><clipPath id="clip-path"><rect class="cls-1" width="1920" height="677"/></clipPath><linearGradient id="未命名漸層_3" x1="981.87" y1="874.77" x2="981.87" y2="-648.27" gradientUnits="userSpaceOnUse"><stop offset="0" stop-color="#afd4e3"/><stop offset="0.02" stop-color="#add4e3"/><stop offset="1" stop-color="#3894d2"/></linearGradient><linearGradient id="未命名漸層_2" x1="448.56" y1="620.08" x2="66.57" y2="620.08" gradientUnits="userSpaceOnUse"><stop offset="0" stop-color="#2a5334"/><stop offset="0.65" stop-color="#295534"/><stop offset="0.88" stop-color="#255c34"/><stop offset="1" stop-color="#216334"/></linearGradient><linearGradient id="未命名漸層_2-2" x1="980.6" y1="626.62" x2="598.61" y2="626.62" xlink:href="#未命名漸層_2"/><linearGradient id="未命名漸層_2-3" x1="1473.62" y1="645.34" x2="1091.63" y2="645.34" xlink:href="#未命名漸層_2"/><linearGradient id="未命名漸層_2-4" x1="1994.56" y1="656.7" x2="1612.57" y2="656.7" xlink:href="#未命名漸層_2"/></defs><title>bg3</title><g class="cls-2"><polygon id="_路徑_" data-name="&lt;路徑&gt;" class="cls-3" points="-12.41 -296.74 -12.41 -146.42 -12.41 127.83 -12.41 402.09 -12.41 676.34 -12.41 893.82 1976.15 893.82 1976.15 743.8 1976.15 469.55 1976.15 195.29 1976.15 -78.96 1976.15 -296.74 -12.41 -296.74"/><path class="cls-4" d="M66.57,636.56s104.88-59.43,127.65-70.67,35.28-15.42,56.23-2.68c21.66,13.18,57.82,36.78,67.23,38s18.08-8.56,29.52-8.56,101.36,39.05,101.36,39.05v53.07h-382Z"/><path class="cls-5" d="M318.68,630.63s-42.7-17.87-73.31-16.41-81,20-111.67,16.41S-6.58,574.41-42.88,579.39s-83.27,27.67-91.1,29.85-7.83,5-7.83,5v70.56H318.68Z"/><path class="cls-6" d="M-141.46,643.81s72.06-33.87,91.52-32.43S71.29,662.55,123.82,661.1s78.46-15.85,100.08-13.69,73.86,25.22,111,19.46S448,630.12,448,630.12v57.71H-141.46Z"/><path class="cls-7" d="M598.61,643.1s104.88-59.43,127.65-70.67,35.28-15.43,56.23-2.68c21.66,13.18,57.82,36.78,67.22,38s18.09-8.56,29.52-8.56,101.37,39,101.37,39v53.07h-382Z"/><path class="cls-5" d="M850.72,637.17S808,619.3,777.41,620.76s-81,20-111.68,16.41-140.27-56.23-176.57-51.24-83.27,27.66-91.1,29.84-7.83,5-7.83,5v70.56H850.72Z"/><path class="cls-6" d="M390.58,650.35s72.06-33.87,91.52-32.43,121.23,51.16,173.76,49.72S734.32,651.79,755.94,654s73.86,25.22,111,19.46,113.14-36.75,113.14-36.75v57.71H390.58Z"/><path class="cls-8" d="M1091.63,661.81s104.88-59.42,127.66-70.66,35.27-15.43,56.23-2.68c21.66,13.18,57.81,36.78,67.22,38s18.09-8.56,29.52-8.56S1473.62,657,1473.62,657V710h-382Z"/><path class="cls-5" d="M1343.75,655.89s-42.7-17.87-73.31-16.41-81,20-111.68,16.41-140.27-56.23-176.57-51.24-83.27,27.66-91.1,29.84-7.83,5-7.83,5V710h460.49Z"/><path class="cls-6" d="M883.61,669.07s72.06-33.87,91.52-32.43,121.23,51.16,173.75,49.72,78.47-15.85,100.09-13.69,73.86,25.22,111,19.46,113.14-36.75,113.14-36.75v57.71H883.61Z"/><path class="cls-9" d="M1612.57,673.18s104.88-59.43,127.66-70.67,35.27-15.42,56.22-2.68c21.66,13.18,57.82,36.78,67.23,38s18.08-8.56,29.52-8.56,101.36,39.05,101.36,39.05V721.4h-382Z"/><path class="cls-5" d="M1864.69,667.25s-42.71-17.87-73.31-16.41-81,20-111.68,16.41S1539.42,611,1503.12,616s-83.27,27.67-91.1,29.85-7.83,5-7.83,5V721.4h460.5Z"/><path class="cls-6" d="M1404.54,680.43s72.07-33.87,91.52-32.43,121.24,51.17,173.76,49.72,78.46-15.85,100.08-13.69,73.87,25.22,111,19.46S1994,666.74,1994,666.74v57.71H1404.54Z"/><g id="_群組_" data-name="&lt;群組&gt;"><path id="_路徑_2" data-name="&lt;路徑&gt;" class="cls-10" d="M1697,309.41c-15.9,21.31-36.49,8.58-36.49,8.58-15.74,11.58-23.06-4.26-23.06-4.26C1620.87,320.94,1613,307,1613,307c-6.44,2.08-11.12,1.33-13.47-1.84a6,6,0,0,0-1.72,4.42c0,8,5.68,11,15.19,8,0,0,7.87,14,24.48,6.78,0,0,7.32,15.84,23.06,4.26,0,0,20.59,12.73,36.49-8.58,0,0,36.39,10.49,36.39-12.62a19,19,0,0,0-.73-5.43C1727.58,318.22,1697,309.41,1697,309.41Z"/><path id="_路徑_3" data-name="&lt;路徑&gt;" class="cls-11" d="M1613,307s7.87,14,24.48,6.78c0,0,7.32,15.84,23.06,4.26,0,0,20.59,12.73,36.49-8.58,0,0,30.55,8.81,35.66-7.5-4.78-16.17-31.72-8.83-31.72-8.83s-5.25-26.55-31-14.75c0,0-.17-13.79-17.21-14-15.74-.21-17,16.92-17,16.92s-26-7.86-26.55,21.2c0,0-6.47-.49-9.65,2.69C1601.88,308.28,1606.56,309,1613,307Z"/></g><line class="cls-12" x1="1532.79" y1="428.04" x2="1533.93" y2="445.7"/><line class="cls-12" x1="1543" y1="429.61" x2="1541.24" y2="446.26"/><line class="cls-12" x1="1561.12" y1="430.22" x2="1556.29" y2="447.42"/><line class="cls-12" x1="1550.74" y1="430.21" x2="1548.98" y2="446.86"/><path class="cls-13" d="M1557.79,326.42h0c-27.74-2.14-52.41,16.83-55.11,42.36-1.61,15.27,14.22,36.92,27.21,51.85L1547.7,422l5.33.41h0l12.49,1c15.9-12.71,36-31.59,37.62-46.86C1605.84,351,1585.53,328.55,1557.79,326.42Z"/><path class="cls-14" d="M1565.52,423.37l-2,6.41a5.75,5.75,0,0,1-6.07,3.64l-21.82-1.68c-2.8-.21-5-2.13-5.21-4.51l-.58-6.6Z"/><path class="cls-15" d="M1565.52,423.37l-2,6.41a5.75,5.75,0,0,1-6.07,3.64l-14.4-1.11c-2.79-.21-5-2.12-5.21-4.51l-.58-6.6Z"/><path class="cls-16" d="M1558.17,451.47l-26.93-2.07a2.11,2.11,0,0,1-2.12-2.17l.08-.72a2.25,2.25,0,0,1,2.53-1.81l26.94,2.07a2.11,2.11,0,0,1,2.11,2.17l-.07.72A2.27,2.27,0,0,1,1558.17,451.47Z"/><path class="cls-17" d="M1551.67,451l-2.59,12.69a3.85,3.85,0,0,1-3.89,3.24l-10.49-.81a3.58,3.58,0,0,1-3.14-3.78l.08-9.77,0-3.11Z"/><path class="cls-18" d="M1557.75,451.44l-2.59,12.68a3.86,3.86,0,0,1-3.9,3.25l-10.49-.81a3.58,3.58,0,0,1-3.14-3.78l.08-9.77,0-3.11Z"/><polygon class="cls-17" points="1537.74 449.9 1557.74 451.44 1557.25 453.86 1537.72 452.42 1537.74 449.9"/><path class="cls-19" d="M1536.36,452.36l.75-.78-2.08-.16.52.92c-.63.52-1.69,1.5-1.77,2.29a1.93,1.93,0,0,0,1.73,2.18,2.07,2.07,0,0,0,2.16-1.88C1537.75,454.12,1536.86,453,1536.36,452.36Z"/><path class="cls-20" d="M1532,450.17c.41,1.14,2,2.07,4,2.22s3.78-.51,4.42-1.56"/><path class="cls-19" d="M1544.81,453l.75-.78-2.08-.16.53.92c-.63.52-1.69,1.5-1.78,2.29a1.93,1.93,0,0,0,1.73,2.18,2.06,2.06,0,0,0,2.16-1.88C1546.21,454.77,1545.32,453.6,1544.81,453Z"/><path class="cls-20" d="M1540.4,450.83c.41,1.13,2,2.06,4,2.21s3.78-.51,4.42-1.56"/><path class="cls-19" d="M1553.26,453.66l.76-.77-2.09-.16.53.91c-.63.52-1.69,1.51-1.77,2.29a1.94,1.94,0,0,0,1.72,2.19,2.08,2.08,0,0,0,2.16-1.89C1554.66,455.42,1553.77,454.25,1553.26,453.66Z"/><path class="cls-20" d="M1548.85,451.48c.41,1.13,2,2.06,4,2.22s3.79-.52,4.43-1.57"/><path class="cls-11" d="M1508.89,366.6c-.26-5.53,3.17-10.4,7-14.17,1.15-1.14-.74-2.8-1.89-1.66-4.28,4.23-7.39,9.64-7.1,15.8C1507,368.19,1509,368.22,1508.89,366.6Z"/><path class="cls-11" d="M1508.63,371.91a1.26,1.26,0,0,0-1.44-2.06A1.26,1.26,0,0,0,1508.63,371.91Z"/><line class="cls-12" x1="1652.22" y1="163.02" x2="1657.55" y2="185.59"/><line class="cls-12" x1="1665.76" y1="162.83" x2="1667.12" y2="184.73"/><line class="cls-12" x1="1689.3" y1="159.66" x2="1686.82" y2="182.94"/><line class="cls-12" x1="1675.89" y1="161.91" x2="1677.25" y2="183.81"/><path class="cls-21" d="M1662.36,26.26h0c-36.31,3.3-64,33.18-62,66.76,1.25,20.08,26.43,44.6,46.47,61.07l23.32-2.12,7-.63h0l16.36-1.48c17.77-19.9,39.64-48.68,38.39-68.76C1729.8,47.52,1698.67,23,1662.36,26.26Z"/><path class="cls-14" d="M1693.5,149.86l-1.13,8.69c-.41,3.15-3.39,5.71-7,6l-28.56,2.59c-3.66.33-6.92-1.66-7.72-4.7l-2.19-8.39Z"/><path class="cls-15" d="M1693.5,149.86l-1.13,8.69c-.41,3.15-3.39,5.71-7,6l-18.84,1.71c-3.66.33-6.92-1.66-7.72-4.7l-2.19-8.39Z"/><path class="cls-16" d="M1690.13,187.77,1654.88,191a2.76,2.76,0,0,1-3.21-2.34l-.06-1a3,3,0,0,1,2.88-2.89l35.25-3.2a2.77,2.77,0,0,1,3.21,2.34l.06,1A3,3,0,0,1,1690.13,187.77Z"/><path class="cls-17" d="M1681.63,188.54l-.58,17a5.06,5.06,0,0,1-4.33,5L1663,211.78a4.7,4.7,0,0,1-4.89-4.21l-2-12.64-.64-4Z"/><path class="cls-18" d="M1689.57,187.82l-.58,17a5.05,5.05,0,0,1-4.32,5l-13.73,1.25a4.71,4.71,0,0,1-4.89-4.21l-2-12.64-.65-4Z"/><polygon class="cls-17" points="1663.38 190.19 1689.57 187.82 1689.46 191.06 1663.91 193.45 1663.38 190.19"/><path class="cls-19" d="M1662.13,193.66l.81-1.16-2.72.25.88,1.07c-.71.81-1.86,2.31-1.8,3.35a2.53,2.53,0,0,0,2.71,2.44,2.71,2.71,0,0,0,2.38-2.91C1664.32,195.64,1662.92,194.32,1662.13,193.66Z"/><path class="cls-20" d="M1656,191.81c.78,1.37,3.06,2.23,5.69,2s4.78-1.49,5.38-3"/><path class="cls-19" d="M1673.2,192.66l.81-1.16-2.73.25.88,1.07c-.7.81-1.86,2.31-1.79,3.34a2.53,2.53,0,0,0,2.71,2.45,2.71,2.71,0,0,0,2.37-2.91C1675.39,194.64,1674,193.32,1673.2,192.66Z"/><path class="cls-20" d="M1667,190.81c.77,1.37,3,2.22,5.68,2s4.78-1.5,5.38-3"/><path class="cls-19" d="M1684.26,191.66l.81-1.16-2.73.25.88,1.07c-.7.81-1.85,2.31-1.79,3.34a2.54,2.54,0,0,0,2.71,2.45,2.72,2.72,0,0,0,2.38-2.91C1686.45,193.63,1685.05,192.32,1684.26,191.66Z"/><path class="cls-20" d="M1678.09,189.8c.78,1.38,3.06,2.23,5.69,2s4.78-1.49,5.38-3"/><path class="cls-11" d="M1607.94,88.85c-1.54-7.09,1.82-14.12,5.92-19.83,1.24-1.72-1.57-3.46-2.8-1.74-4.6,6.4-7.44,14.07-5.72,22C1605.79,91.33,1608.39,90.92,1607.94,88.85Z"/><path class="cls-11" d="M1608.77,95.77a1.65,1.65,0,0,0-2.32-2.35A1.65,1.65,0,0,0,1608.77,95.77Z"/><g id="_群組_2" data-name="&lt;群組&gt;"><path id="_路徑_4" data-name="&lt;路徑&gt;" class="cls-10" d="M365.43,452.19c-26.43,19.82-45.94,2.45-45.94,2.45a11.32,11.32,0,0,1-10.91,2.77c-2.77,6.76-13.68,17.67-32.58,17.67s-30.58-18.28-30.58-18.28c-20.59,13.67-37.49-5.54-37.49-5.54s-22.4.23-28.26-8.58a8.43,8.43,0,0,0-1.4,4.77c0,13.52,29.66,13.22,29.66,13.22s16.9,19.2,37.49,5.53c0,0,11.68,18.28,30.58,18.28s29.81-10.91,32.58-17.67a11.33,11.33,0,0,0,10.91-2.76s19.51,17.36,45.94-2.46c0,0,27.51,4,27.51-11.53a10.25,10.25,0,0,0-1.06-4.68C386.83,455.29,365.43,452.19,365.43,452.19Z"/><path id="_路徑_5" data-name="&lt;路徑&gt;" class="cls-11" d="M207.93,451.26s16.9,19.21,37.49,5.54c0,0,11.68,18.28,30.58,18.28s29.81-10.91,32.58-17.67a11.32,11.32,0,0,0,10.91-2.77S339,472,365.43,452.19c0,0,21.4,3.1,26.45-6.81-5.16-10.2-27.37-7.92-27.37-7.92a18,18,0,0,0-18.28-7.37s-6.77-15.22-28-11.84c0,0,1.38-13.52-13.83-20.13s-28.27,3.08-28.27,3.08-16.75-8.76-21.21,9.52a22,22,0,0,0-20.39,9.48s-20.18-5.33-29.09,14.8c0,0-20.25-.8-25.8,7.68C185.53,451.49,207.93,451.26,207.93,451.26Z"/></g><line class="cls-12" x1="399.23" y1="531.01" x2="405.87" y2="548.52"/><line class="cls-12" x1="410.05" y1="529.44" x2="413.44" y2="546.82"/><line class="cls-12" x1="428.56" y1="524.42" x2="429.02" y2="543.32"/><line class="cls-12" x1="418.06" y1="527.63" x2="421.46" y2="545.02"/><path class="cls-22" d="M393,420.45h0c-28.72,6.45-47.79,33.3-42.59,60,3.11,15.95,25.84,32.93,43.61,44l18.45-4.14L418,519h0l12.93-2.91C443,498.33,457.51,473,454.4,457,449.2,430.38,421.7,414,393,420.45Z"/><path class="cls-14" d="M430.89,516.13l0,7.08c0,2.57-2.12,4.93-5,5.57l-22.59,5.08c-2.89.65-5.72-.6-6.67-3L394,524.42Z"/><path class="cls-15" d="M430.89,516.13l0,7.08c0,2.57-2.12,4.93-5,5.57L411,532.13c-2.89.65-5.72-.6-6.67-2.94l-2.64-6.5Z"/><path class="cls-16" d="M432.18,546.84l-27.89,6.26a2.23,2.23,0,0,1-2.81-1.53l-.15-.76a2.39,2.39,0,0,1,2-2.62l27.89-6.26a2.25,2.25,0,0,1,2.82,1.53l.14.76A2.39,2.39,0,0,1,432.18,546.84Z"/><path class="cls-17" d="M425.45,548.35,426.77,562a4.07,4.07,0,0,1-2.93,4.49L413,568.91a3.8,3.8,0,0,1-4.36-2.85l-2.94-9.91-.94-3.15Z"/><path class="cls-18" d="M431.74,546.94l1.32,13.63a4.09,4.09,0,0,1-2.93,4.49l-10.86,2.44a3.8,3.8,0,0,1-4.36-2.85l-3-9.91-.94-3.15Z"/><polygon class="cls-17" points="411.02 551.59 431.74 546.94 431.99 549.54 411.79 554.14 411.02 551.59"/><path class="cls-19" d="M410.39,554.5l.52-1-2.15.48.81.77c-.47.72-1.24,2-1.08,2.86a2,2,0,0,0,2.43,1.68,2.19,2.19,0,0,0,1.59-2.58C412.35,555.85,411.08,555,410.39,554.5Z"/><path class="cls-20" d="M405.25,553.67c.77,1,2.68,1.46,4.77,1s3.66-1.7,4-3"/><path class="cls-19" d="M419.14,552.54l.52-1-2.15.49.82.76c-.48.72-1.25,2.05-1.09,2.87a2,2,0,0,0,2.43,1.67,2.2,2.2,0,0,0,1.6-2.58C421.1,553.89,419.84,553,419.14,552.54Z"/><path class="cls-20" d="M414,551.7c.76,1,2.68,1.46,4.76,1s3.67-1.69,4-3"/><path class="cls-19" d="M427.89,550.57l.53-1-2.16.48.82.77c-.48.72-1.25,2-1.09,2.86a2,2,0,0,0,2.43,1.67,2.19,2.19,0,0,0,1.6-2.57C429.85,551.92,428.59,551,427.89,550.57Z"/><path class="cls-20" d="M422.76,549.73c.76,1,2.68,1.47,4.76,1s3.67-1.7,4-3"/><path class="cls-11" d="M356,476.28c-2-5.51,0-11.5,2.66-16.49.81-1.51-1.62-2.61-2.43-1.1-3,5.6-4.48,12-2.27,18.19C354.52,478.5,356.56,477.9,356,476.28Z"/><path class="cls-11" d="M357.37,481.74a1.33,1.33,0,0,0-2.1-1.64A1.33,1.33,0,0,0,357.37,481.74Z"/><g id="_群組_3" data-name="&lt;群組&gt;"><path id="_路徑_6" data-name="&lt;路徑&gt;" class="cls-10" d="M534.66,152.25c-26.43,19.82-45.95,2.46-45.95,2.46a11.33,11.33,0,0,1-10.91,2.76c-2.76,6.76-13.67,17.68-32.58,17.68s-30.57-18.29-30.57-18.29c-20.6,13.68-37.5-5.53-37.5-5.53s-22.4.23-28.26-8.59a8.51,8.51,0,0,0-1.4,4.77c0,13.53,29.66,13.22,29.66,13.22s16.9,19.21,37.5,5.53c0,0,11.67,18.29,30.57,18.29S475,173.64,477.8,166.88a11.35,11.35,0,0,0,10.91-2.77s19.52,17.36,45.95-2.46c0,0,27.5,4,27.5-11.52a10.2,10.2,0,0,0-1.06-4.69C556.05,155.35,534.66,152.25,534.66,152.25Z"/><path id="_路徑_7" data-name="&lt;路徑&gt;" class="cls-11" d="M377.15,151.33s16.9,19.21,37.5,5.53c0,0,11.67,18.29,30.57,18.29S475,164.23,477.8,157.47a11.33,11.33,0,0,0,10.91-2.76s19.52,17.36,45.95-2.46c0,0,21.39,3.1,26.44-6.81-5.15-10.19-27.37-7.91-27.37-7.91a18,18,0,0,0-18.28-7.38s-6.76-15.21-28-11.83c0,0,1.38-13.52-13.83-20.13s-28.27,3.07-28.27,3.07-16.75-8.76-21.21,9.53a22,22,0,0,0-20.38,9.47s-20.18-5.32-29.1,14.81c0,0-20.25-.8-25.8,7.67C354.75,151.56,377.15,151.33,377.15,151.33Z"/></g><line class="cls-12" x1="216.69" y1="228.64" x2="217.83" y2="246.3"/><line class="cls-12" x1="226.9" y1="230.22" x2="225.14" y2="246.87"/><line class="cls-12" x1="245.02" y1="230.82" x2="240.19" y2="248.02"/><line class="cls-12" x1="234.64" y1="230.81" x2="232.88" y2="247.46"/><path class="cls-23" d="M241.69,127h0c-27.74-2.13-52.41,16.83-55.11,42.36-1.61,15.27,14.22,36.92,27.21,51.86l17.81,1.37,5.33.41h0l12.49,1c15.9-12.71,36-31.6,37.62-46.87C289.74,151.58,269.43,129.16,241.69,127Z"/><path class="cls-14" d="M249.42,224l-1.95,6.4A5.75,5.75,0,0,1,241.4,234l-21.82-1.68c-2.8-.21-5-2.12-5.21-4.51l-.58-6.59Z"/><path class="cls-15" d="M249.42,224l-1.95,6.4A5.75,5.75,0,0,1,241.4,234l-14.4-1.1c-2.79-.22-5-2.13-5.21-4.52l-.58-6.59Z"/><path class="cls-16" d="M242.07,252.08,215.14,250a2.12,2.12,0,0,1-2.12-2.16l.08-.73a2.25,2.25,0,0,1,2.53-1.81l26.94,2.07a2.11,2.11,0,0,1,2.11,2.17l-.07.73A2.28,2.28,0,0,1,242.07,252.08Z"/><path class="cls-17" d="M235.57,251.58,233,264.26a3.86,3.86,0,0,1-3.9,3.24l-10.49-.8a3.59,3.59,0,0,1-3.14-3.79l.08-9.77,0-3.1Z"/><path class="cls-18" d="M241.65,252l-2.59,12.69a3.86,3.86,0,0,1-3.9,3.24l-10.49-.81a3.58,3.58,0,0,1-3.14-3.78l.08-9.77,0-3.11Z"/><polygon class="cls-17" points="221.64 250.5 241.65 252.04 241.15 254.47 221.62 253.02 221.64 250.5"/><path class="cls-19" d="M220.26,253l.75-.77-2.08-.16.52.92c-.63.52-1.69,1.5-1.77,2.28a1.93,1.93,0,0,0,1.73,2.19,2.07,2.07,0,0,0,2.16-1.89C221.65,254.72,220.76,253.55,220.26,253Z"/><path class="cls-20" d="M215.85,250.78c.41,1.13,2,2.06,4,2.22s3.78-.52,4.42-1.57"/><path class="cls-19" d="M228.71,253.61l.75-.77-2.08-.16.53.92c-.63.52-1.69,1.5-1.78,2.28a1.93,1.93,0,0,0,1.73,2.19,2.07,2.07,0,0,0,2.16-1.89C230.11,255.37,229.22,254.2,228.71,253.61Z"/><path class="cls-20" d="M224.3,251.43c.41,1.13,2,2.06,4,2.22s3.78-.52,4.42-1.57"/><path class="cls-19" d="M237.16,254.26l.76-.77-2.09-.16.53.92c-.63.52-1.69,1.5-1.77,2.28a1.93,1.93,0,0,0,1.72,2.19,2.07,2.07,0,0,0,2.16-1.89C238.56,256,237.67,254.85,237.16,254.26Z"/><path class="cls-20" d="M232.75,252.08c.41,1.13,2,2.06,4,2.22s3.79-.52,4.43-1.57"/><path class="cls-11" d="M192.79,167.2c-.26-5.53,3.17-10.39,7-14.16,1.15-1.14-.74-2.81-1.89-1.67-4.28,4.23-7.39,9.64-7.1,15.81C190.86,168.8,192.87,168.82,192.79,167.2Z"/><path class="cls-11" d="M192.53,172.52a1.26,1.26,0,0,0-1.44-2.07A1.26,1.26,0,0,0,192.53,172.52Z"/></g></svg>