<svg id="圖層_1" data-name="圖層 1" xmlns="http://www.w3.org/2000/svg" xmlns:xlink="http://www.w3.org/1999/xlink" viewBox="0 0 1920 677"><defs><style>.cls-1{fill:none;}.cls-2{clip-path:url(#clip-path);}.cls-3{fill:url(#未命名漸層_3);}.cls-4{fill:url(#未命名漸層_2);}.cls-5{fill:#2a5334;}.cls-6{fill:#006934;}.cls-7{fill:url(#未命名漸層_2-2);}.cls-8{fill:url(#未命名漸層_2-3);}.cls-9{fill:url(#未命名漸層_2-4);}.cls-10{fill:#d7e6f6;}.cls-11{fill:#fff;}</style><clipPath id="clip-path"><rect class="cls-1" width="1920" height="677"/></clipPath><linearGradient id="未命名漸層_3" x1="981.87" y1="874.77" x2="981.87" y2="-648.27" gradientUnits="userSpaceOnUse"><stop offset="0" stop-color="#afd4e3"/><stop offset="0.02" stop-color="#add4e3"/><stop offset="1" stop-color="#3894d2"/></linearGradient><linearGradient id="未命名漸層_2" x1="448.56" y1="620.08" x2="66.57" y2="620.08" gradientUnits="userSpaceOnUse"><stop offset="0" stop-color="#2a5334"/><stop offset="0.65" stop-color="#295534"/><stop offset="0.88" stop-color="#255c34"/><stop offset="1" stop-color="#216334"/></linearGradient><linearGradient id="未命名漸層_2-2" x1="980.6" y1="626.62" x2="598.61" y2="626.62" xlink:href="#未命名漸層_2"/><linearGradient id="未命名漸層_2-3" x1="1473.62" y1="645.34" x2="1091.63" y2="645.34" xlink:href="#未命名漸層_2"/><linearGradient id="未命名漸層_2-4" x1="1994.56" y1="656.7" x2="1612.57" y2="656.7" xlink:href="#未命名漸層_2"/></defs><title>bg4</title><g class="cls-2"><polygon id="_路徑_" data-name="&lt;路徑&gt;" class="cls-3" points="-12.41 -296.74 -12.41 -146.42 -12.41 127.83 -12.41 402.09 -12.41 676.34 -12.41 893.82 1976.15 893.82 1976.15 743.8 1976.15 469.55 1976.15 195.29 1976.15 -78.96 1976.15 -296.74 -12.41 -296.74"/><path class="cls-4" d="M66.57,636.56s104.88-59.43,127.65-70.67,35.28-15.42,56.23-2.68c21.66,13.18,57.82,36.78,67.23,38s18.08-8.56,29.52-8.56,101.36,39.05,101.36,39.05v53.07h-382Z"/><path class="cls-5" d="M318.68,630.63s-42.7-17.87-73.31-16.41-81,20-111.67,16.41S-6.58,574.41-42.88,579.39s-83.27,27.67-91.1,29.85-7.83,5-7.83,5v70.56H318.68Z"/><path class="cls-6" d="M-141.46,643.81s72.06-33.87,91.52-32.43S71.29,662.55,123.82,661.1s78.46-15.85,100.08-13.69,73.86,25.22,111,19.46S448,630.12,448,630.12v57.71H-141.46Z"/><path class="cls-7" d="M598.61,643.1s104.88-59.43,127.65-70.67,35.28-15.43,56.23-2.68c21.66,13.18,57.82,36.78,67.22,38s18.09-8.56,29.52-8.56,101.37,39,101.37,39v53.07h-382Z"/><path class="cls-5" d="M850.72,637.17S808,619.3,777.41,620.76s-81,20-111.68,16.41-140.27-56.23-176.57-51.24-83.27,27.66-91.1,29.84-7.83,5-7.83,5v70.56H850.72Z"/><path class="cls-6" d="M390.58,650.35s72.06-33.87,91.52-32.43,121.23,51.16,173.76,49.72S734.32,651.79,755.94,654s73.86,25.22,111,19.46,113.14-36.75,113.14-36.75v57.71H390.58Z"/><path class="cls-8" d="M1091.63,661.81s104.88-59.42,127.66-70.66,35.27-15.43,56.23-2.68c21.66,13.18,57.81,36.78,67.22,38s18.09-8.56,29.52-8.56S1473.62,657,1473.62,657V710h-382Z"/><path class="cls-5" d="M1343.75,655.89s-42.7-17.87-73.31-16.41-81,20-111.68,16.41-140.27-56.23-176.57-51.24-83.27,27.66-91.1,29.84-7.83,5-7.83,5V710h460.49Z"/><path class="cls-6" d="M883.61,669.07s72.06-33.87,91.52-32.43,121.23,51.16,173.75,49.72,78.47-15.85,100.09-13.69,73.86,25.22,111,19.46,113.14-36.75,113.14-36.75v57.71H883.61Z"/><path class="cls-9" d="M1612.57,673.18s104.88-59.43,127.66-70.67,35.27-15.42,56.22-2.68c21.66,13.18,57.82,36.78,67.23,38s18.08-8.56,29.52-8.56,101.36,39.05,101.36,39.05V721.4h-382Z"/><path class="cls-5" d="M1864.69,667.25s-42.71-17.87-73.31-16.41-81,20-111.68,16.41S1539.42,611,1503.12,616s-83.27,27.67-91.1,29.85-7.83,5-7.83,5V721.4h460.5Z"/><path class="cls-6" d="M1404.54,680.43s72.07-33.87,91.52-32.43,121.24,51.17,173.76,49.72,78.46-15.85,100.08-13.69,73.87,25.22,111,19.46S1994,666.74,1994,666.74v57.71H1404.54Z"/><g id="_群組_" data-name="&lt;群組&gt;"><path id="_路徑_2" data-name="&lt;路徑&gt;" class="cls-10" d="M1697,309.41c-15.9,21.31-36.49,8.58-36.49,8.58-15.74,11.58-23.06-4.26-23.06-4.26C1620.87,320.94,1613,307,1613,307c-6.44,2.08-11.12,1.33-13.47-1.84a6,6,0,0,0-1.72,4.42c0,8,5.68,11,15.19,8,0,0,7.87,14,24.48,6.78,0,0,7.32,15.84,23.06,4.26,0,0,20.59,12.73,36.49-8.58,0,0,36.39,10.49,36.39-12.62a19,19,0,0,0-.73-5.43C1727.58,318.22,1697,309.41,1697,309.41Z"/><path id="_路徑_3" data-name="&lt;路徑&gt;" class="cls-11" d="M1613,307s7.87,14,24.48,6.78c0,0,7.32,15.84,23.06,4.26,0,0,20.59,12.73,36.49-8.58,0,0,30.55,8.81,35.66-7.5-4.78-16.17-31.72-8.83-31.72-8.83s-5.25-26.55-31-14.75c0,0-.17-13.79-17.21-14-15.74-.21-17,16.92-17,16.92s-26-7.86-26.55,21.2c0,0-6.47-.49-9.65,2.69C1601.88,308.28,1606.56,309,1613,307Z"/></g><g id="_群組_2" data-name="&lt;群組&gt;"><path id="_路徑_4" data-name="&lt;路徑&gt;" class="cls-10" d="M365.43,452.19c-26.43,19.82-45.94,2.45-45.94,2.45a11.32,11.32,0,0,1-10.91,2.77c-2.77,6.76-13.68,17.67-32.58,17.67s-30.58-18.28-30.58-18.28c-20.59,13.67-37.49-5.54-37.49-5.54s-22.4.23-28.26-8.58a8.43,8.43,0,0,0-1.4,4.77c0,13.52,29.66,13.22,29.66,13.22s16.9,19.2,37.49,5.53c0,0,11.68,18.28,30.58,18.28s29.81-10.91,32.58-17.67a11.33,11.33,0,0,0,10.91-2.76s19.51,17.36,45.94-2.46c0,0,27.51,4,27.51-11.53a10.25,10.25,0,0,0-1.06-4.68C386.83,455.29,365.43,452.19,365.43,452.19Z"/><path id="_路徑_5" data-name="&lt;路徑&gt;" class="cls-11" d="M207.93,451.26s16.9,19.21,37.49,5.54c0,0,11.68,18.28,30.58,18.28s29.81-10.91,32.58-17.67a11.32,11.32,0,0,0,10.91-2.77S339,472,365.43,452.19c0,0,21.4,3.1,26.45-6.81-5.16-10.2-27.37-7.92-27.37-7.92a18,18,0,0,0-18.28-7.37s-6.77-15.22-28-11.84c0,0,1.38-13.52-13.83-20.13s-28.27,3.08-28.27,3.08-16.75-8.76-21.21,9.52a22,22,0,0,0-20.39,9.48s-20.18-5.33-29.09,14.8c0,0-20.25-.8-25.8,7.68C185.53,451.49,207.93,451.26,207.93,451.26Z"/></g><g id="_群組_3" data-name="&lt;群組&gt;"><path id="_路徑_6" data-name="&lt;路徑&gt;" class="cls-10" d="M534.66,152.25c-26.43,19.82-45.95,2.46-45.95,2.46a11.33,11.33,0,0,1-10.91,2.76c-2.76,6.76-13.67,17.68-32.58,17.68s-30.57-18.29-30.57-18.29c-20.6,13.68-37.5-5.53-37.5-5.53s-22.4.23-28.26-8.59a8.51,8.51,0,0,0-1.4,4.77c0,13.53,29.66,13.22,29.66,13.22s16.9,19.21,37.5,5.53c0,0,11.67,18.29,30.57,18.29S475,173.64,477.8,166.88a11.35,11.35,0,0,0,10.91-2.77s19.52,17.36,45.95-2.46c0,0,27.5,4,27.5-11.52a10.2,10.2,0,0,0-1.06-4.69C556.05,155.35,534.66,152.25,534.66,152.25Z"/><path id="_路徑_7" data-name="&lt;路徑&gt;" class="cls-11" d="M377.15,151.33s16.9,19.21,37.5,5.53c0,0,11.67,18.29,30.57,18.29S475,164.23,477.8,157.47a11.33,11.33,0,0,0,10.91-2.76s19.52,17.36,45.95-2.46c0,0,21.39,3.1,26.44-6.81-5.15-10.19-27.37-7.91-27.37-7.91a18,18,0,0,0-18.28-7.38s-6.76-15.21-28-11.83c0,0,1.38-13.52-13.83-20.13s-28.27,3.07-28.27,3.07-16.75-8.76-21.21,9.53a22,22,0,0,0-20.38,9.47s-20.18-5.32-29.1,14.81c0,0-20.25-.8-25.8,7.67C354.75,151.56,377.15,151.33,377.15,151.33Z"/></g></g></svg>